<?xml version="1.0" encoding="UTF-8"?>
<svg width="24px" height="24px" viewBox="0 0 24 24" version="1.1" xmlns="http://www.w3.org/2000/svg">
    <g stroke="none" stroke-width="1" fill="none" fill-rule="evenodd">
        <path d="M19,6 C20.1045695,6 21,6.8954305 21,8 L21,16 C21,17.1045695 20.1045695,18 19,18 L18,18 C18,19.1045695 17.1045695,20 16,20 C14.8954305,20 14,19.1045695 14,18 L10,18 C10,19.1045695 9.1045695,20 8,20 C6.8954305,20 6,19.1045695 6,18 L5,18 C3.8954305,18 3,17.1045695 3,16 L3,8 C3,6.8954305 3.8954305,6 5,6 L19,6 Z M8,16 C7.44771525,16 7,16.4477153 7,17 C7,17.5522847 7.44771525,18 8,18 C8.55228475,18 9,17.5522847 9,17 C9,16.4477153 8.55228475,16 8,16 Z M16,16 C15.4477153,16 15,16.4477153 15,17 C15,17.5522847 15.4477153,18 16,18 C16.5522847,18 17,17.5522847 17,17 C17,16.4477153 16.5522847,16 16,16 Z M19,8 L5,8 L5,14 L19,14 L19,8 Z" fill="#007AFF"></path>
    </g>
</svg>
