<?xml version="1.0" encoding="UTF-8"?>
<svg width="24px" height="24px" viewBox="0 0 24 24" version="1.1" xmlns="http://www.w3.org/2000/svg">
    <g stroke="none" stroke-width="1" fill="none" fill-rule="evenodd">
        <path d="M7,22 C5.8954305,22 5,21.1045695 5,20 C5,18.8954305 5.8954305,18 7,18 C8.1045695,18 9,18.8954305 9,20 C9,21.1045695 8.1045695,22 7,22 Z M17,22 C15.8954305,22 15,21.1045695 15,20 C15,18.8954305 15.8954305,18 17,18 C18.1045695,18 19,18.8954305 19,20 C19,21.1045695 18.1045695,22 17,22 Z M1,3 C1,2.44771525 1.44771525,2 2,2 L5,2 C5.48284271,2 5.89349288,2.33946586 5.98370531,2.81430911 L6.26538512,4.5 L21,4.5 C21.5522847,4.5 22,4.94771525 22,5.5 C22,5.56380941 21.9931973,5.62741804 21.9796683,5.68907875 L20.1598968,14.6890788 C20.0712125,15.1140898 19.6973972,15.4180489 19.2598653,15.4180489 L7.83550973,15.4180489 L8.1425791,17 L19,17 C19.5522847,17 20,17.4477153 20,18 C20,18.5522847 19.5522847,19 19,19 L7,19 C6.51715729,19 6.10650712,18.6605341 6.01629469,18.1856909 L3.58609437,4 L2,4 C1.44771525,4 1,3.55228475 1,3 Z" fill="#5856D6"></path>
    </g>
</svg>
