<?xml version="1.0" encoding="UTF-8"?>
<svg width="24px" height="24px" viewBox="0 0 24 24" version="1.1" xmlns="http://www.w3.org/2000/svg">
    <g stroke="none" stroke-width="1" fill="none" fill-rule="evenodd">
        <path d="M12,2 C17.5228475,2 22,6.4771525 22,12 C22,17.5228475 17.5228475,22 12,22 C6.4771525,22 2,17.5228475 2,12 C2,6.4771525 6.4771525,2 12,2 Z M12,4 C7.581722,4 4,7.581722 4,12 C4,16.418278 7.581722,20 12,20 C16.418278,20 20,16.418278 20,12 C20,7.581722 16.418278,4 12,4 Z M12,5 C15.8659932,5 19,8.13400675 19,12 C19,15.8659932 15.8659932,19 12,19 C11.7985534,19 11.6002368,18.9894045 11.4052252,18.9687298 C14.2368066,18.5906495 16.5,15.5943562 16.5,12 C16.5,8.40564375 14.2368066,5.40935046 11.4052252,5.03127024 C11.6002368,5.01059554 11.7985534,5 12,5 Z" fill="#8E8E93"></path>
    </g>
</svg>
