<?xml version="1.0" encoding="UTF-8"?>
<svg width="24px" height="24px" viewBox="0 0 24 24" version="1.1" xmlns="http://www.w3.org/2000/svg">
    <g stroke="none" stroke-width="1" fill="none" fill-rule="evenodd">
        <path d="M19,7 C20.1045695,7 21,7.8954305 21,9 L21,17 C21,18.1045695 20.1045695,19 19,19 L18,19 C18,20.1045695 17.1045695,21 16,21 C14.8954305,21 14,20.1045695 14,19 L10,19 C10,20.1045695 9.1045695,21 8,21 C6.8954305,21 6,20.1045695 6,19 L5,19 C3.8954305,19 3,18.1045695 3,17 L3,9 C3,7.8954305 3.8954305,7 5,7 L19,7 Z M8,17 C7.44771525,17 7,17.4477153 7,18 C7,18.5522847 7.44771525,19 8,19 C8.55228475,19 9,18.5522847 9,18 C9,17.4477153 8.55228475,17 8,17 Z M16,17 C15.4477153,17 15,17.4477153 15,18 C15,18.5522847 15.4477153,19 16,19 C16.5522847,19 17,18.5522847 17,18 C17,17.4477153 16.5522847,17 16,17 Z M19,9 L5,9 L5,15 L19,15 L19,9 Z M16.5,2 C17.3284271,2 18,2.67157288 18,3.5 L18,5 L15,5 L15,3.5 C15,2.67157288 15.6715729,2 16.5,2 Z" fill="#5856D6"></path>
    </g>
</svg>
