<?xml version="1.0" encoding="UTF-8"?>
<svg width="24px" height="24px" viewBox="0 0 24 24" version="1.1" xmlns="http://www.w3.org/2000/svg">
    <g stroke="none" stroke-width="1" fill="none" fill-rule="evenodd">
        <path d="M17.4,7 C17.7866,7 18.1,7.3134 18.1,7.7 L18.1,8.3 C18.1,8.6866 17.7866,9 17.4,9 L16.5,9 L16.5,10 L17.4,10 C17.7866,10 18.1,10.3134 18.1,10.7 L18.1,11.3 C18.1,11.6866 17.7866,12 17.4,12 L16.5,12 L16.5,13 L17.4,13 C17.7866,13 18.1,13.3134 18.1,13.7 L18.1,14.3 C18.1,14.6866 17.7866,15 17.4,15 L16.5,15 L16.5,16.5 C16.5,16.7761 16.2761,17 16,17 L8,17 C7.7239,17 7.5,16.7761 7.5,16.5 L7.5,15 L6.6,15 C6.2134,15 5.9,14.6866 5.9,14.3 L5.9,13.7 C5.9,13.3134 6.2134,13 6.6,13 L7.5,13 L7.5,12 L6.6,12 C6.2134,12 5.9,11.6866 5.9,11.3 L5.9,10.7 C5.9,10.3134 6.2134,10 6.6,10 L7.5,10 L7.5,9 L6.6,9 C6.2134,9 5.9,8.6866 5.9,8.3 L5.9,7.7 C5.9,7.3134 6.2134,7 6.6,7 L7.5,7 L7.5,5.5 C7.5,5.2239 7.7239,5 8,5 L16,5 C16.2761,5 16.5,5.2239 16.5,5.5 L16.5,7 L17.4,7 Z M14.5,7 L9.5,7 L9.5,15 L14.5,15 L14.5,7 Z M12.5,8.5 C13.0523,8.5 13.5,8.9477 13.5,9.5 C13.5,10.0523 13.0523,10.5 12.5,10.5 C11.9477,10.5 11.5,10.0523 11.5,9.5 C11.5,8.9477 11.9477,8.5 12.5,8.5 Z M12.5,11.5 C13.0523,11.5 13.5,11.9477 13.5,12.5 C13.5,13.0523 13.0523,13.5 12.5,13.5 C11.9477,13.5 11.5,13.0523 11.5,12.5 C11.5,11.9477 11.9477,11.5 12.5,11.5 Z" fill="#5856D6"></path>
    </g>
</svg>
