<?xml version="1.0" encoding="UTF-8"?>
<svg width="24px" height="24px" viewBox="0 0 24 24" version="1.1" xmlns="http://www.w3.org/2000/svg">
    <g stroke="none" stroke-width="1" fill="none" fill-rule="evenodd">
        <path d="M12,2 C17.5228475,2 22,6.4771525 22,12 C22,17.5228475 17.5228475,22 12,22 C6.4771525,22 2,17.5228475 2,12 C2,6.4771525 6.4771525,2 12,2 Z M12,4 C7.581722,4 4,7.581722 4,12 C4,16.418278 7.581722,20 12,20 C16.418278,20 20,16.418278 20,12 C20,7.581722 16.418278,4 12,4 Z M13,7 C13.5522847,7 14,7.44771525 14,8 L14,11.5857864 L16.2928932,13.8786797 C16.6834175,14.269204 16.6834175,14.902369 16.2928932,15.2928932 C15.902369,15.6834175 15.269204,15.6834175 14.8786797,15.2928932 L12.2928932,12.7071068 C12.1054534,12.519667 12,12.2652165 12,12 L12,8 C12,7.44771525 12.4477153,7 13,7 Z" fill="#8E8E93"></path>
    </g>
</svg>
