<?xml version="1.0" encoding="UTF-8"?>
<svg width="24px" height="24px" viewBox="0 0 24 24" version="1.1" xmlns="http://www.w3.org/2000/svg">
    <g stroke="none" stroke-width="1" fill="none" fill-rule="evenodd">
        <path d="M12,2.5 L20.4393398,10.9393398 C20.9246211,11.4246211 20.9246211,12.2071068 20.4393398,12.6923882 C20.1897133,12.9420147 19.8530226,13.0800429 19.5,13.0800429 L19,13.0800429 L19,20 C19,21.1045695 18.1045695,22 17,22 L7,22 C5.8954305,22 5,21.1045695 5,20 L5,13.0800429 L4.5,13.0800429 C3.67157288,13.0800429 3,12.40847 3,11.5800429 C3,11.2270203 3.13802818,10.8903296 3.38765441,10.6407031 L12,2.5 Z M12,5.33578644 L7,10.0800429 L7,20 L9,20 L9,15 C9,13.8954305 9.8954305,13 11,13 L13,13 C14.1045695,13 15,13.8954305 15,15 L15,20 L17,20 L17,10.0800429 L12,5.33578644 Z M13,15 L11,15 L11,20 L13,20 L13,15 Z" fill="#007AFF"></path>
    </g>
</svg>
