<?xml version="1.0" encoding="UTF-8"?>
<svg width="24px" height="24px" viewBox="0 0 24 24" version="1.1" xmlns="http://www.w3.org/2000/svg">
    <g stroke="none" stroke-width="1" fill="none" fill-rule="evenodd">
        <path d="M12,2 C16.418278,2 20,5.581722 20,10 C20,12.8273304 18.3162978,16.0815339 15.0980053,19.7644866 L14.1086475,20.8571673 C13.4105996,21.6342662 12.7125518,22.3399511 12,22.9742219 C11.2874482,22.3399511 10.5894004,21.6342662 9.89135254,20.8571673 L8.90199472,19.7644866 C5.68370217,16.0815339 4,12.8273304 4,10 C4,5.581722 7.581722,2 12,2 Z M12,7 C10.3431458,7 9,8.34314575 9,10 C9,11.6568542 10.3431458,13 12,13 C13.6568542,13 15,11.6568542 15,10 C15,8.34314575 13.6568542,7 12,7 Z" fill="#FF3B30"></path>
    </g>
</svg>
