<?xml version="1.0" encoding="UTF-8"?>
<svg width="24px" height="24px" viewBox="0 0 24 24" version="1.1" xmlns="http://www.w3.org/2000/svg">
    <g stroke="none" stroke-width="1" fill="none" fill-rule="evenodd">
        <path d="M2,5 C2,3.8954305 2.8954305,3 4,3 L20,3 C21.1045695,3 22,3.8954305 22,5 L22,17 C22,18.1045695 21.1045695,19 20,19 L13.9142136,19 L10.2928932,22.6213203 C9.90237,23.0118436 9.26920996,23.0118436 8.87868374,22.6213203 C8.68342157,22.4260582 8.57575186,22.1650964 8.57575186,21.8944272 L8.57575186,19 L4,19 C2.8954305,19 2,18.1045695 2,17 L2,5 Z M4,5 L4,17 L10.5757519,17 L10.5757519,19.5857864 L12.5857864,17.5757519 L20,17.5757519 L20,5 L4,5 Z M7,9 C7,8.44771525 7.44771525,8 8,8 L16,8 C16.5522847,8 17,8.44771525 17,9 C17,9.55228475 16.5522847,10 16,10 L8,10 C7.44771525,10 7,9.55228475 7,9 Z M7,13 C7,12.4477153 7.44771525,12 8,12 L12,12 C12.5522847,12 13,12.4477153 13,13 C13,13.5522847 12.5522847,14 12,14 L8,14 C7.44771525,14 7,13.5522847 7,13 Z" fill="#34C759"></path>
    </g>
</svg>
