<?xml version="1.0" encoding="UTF-8"?>
<svg width="24px" height="24px" viewBox="0 0 24 24" version="1.1" xmlns="http://www.w3.org/2000/svg">
    <g stroke="none" stroke-width="1" fill="none" fill-rule="evenodd">
        <path d="M12,2 C12.5522847,2 13,2.44771525 13,3 L13,4.08 C15.8377185,4.55699288 18,7.02024422 18,10 L18,16 L20,16 C20.5522847,16 21,16.4477153 21,17 C21,17.5522847 20.5522847,18 20,18 L4,18 C3.44771525,18 3,17.5522847 3,17 C3,16.4477153 3.44771525,16 4,16 L6,16 L6,10 C6,7.02024422 8.16228154,4.55699288 11,4.08 L11,3 C11,2.44771525 11.4477153,2 12,2 Z M12,22 C10.3431458,22 9,20.6568542 9,19 L15,19 C15,20.6568542 13.6568542,22 12,22 Z" fill="#FF9500"></path>
    </g>
</svg>
