<?xml version="1.0" encoding="UTF-8"?>
<svg width="24px" height="24px" viewBox="0 0 24 24" version="1.1" xmlns="http://www.w3.org/2000/svg">
    <g stroke="none" stroke-width="1" fill="none" fill-rule="evenodd">
        <path d="M12,2 C12.5522847,2 13,2.44771525 13,3 L13,3.08 C15.8377488,3.5566659 18,6.02230388 18,9 L18,14 L19.5,17 L19.5,18 L4.5,18 L4.5,17 L6,14 L6,9 C6,6.02230388 8.16225116,3.5566659 11,3.08 L11,3 C11,2.44771525 11.4477153,2 12,2 Z M10,19 L14,19 C14,20.1045695 13.1045695,21 12,21 C10.8954305,21 10,20.1045695 10,19 Z M16,9 C16,6.790861 14.209139,5 12,5 C9.790861,5 8,6.790861 8,9 L8,15 L16,15 L16,9 Z" fill="#FF9500"></path>
    </g>
</svg>
