<?xml version="1.0" encoding="UTF-8"?>
<svg width="24px" height="24px" viewBox="0 0 24 24" version="1.1" xmlns="http://www.w3.org/2000/svg">
    <g stroke="none" stroke-width="1" fill="none" fill-rule="evenodd">
        <path d="M2,7 C2,5.8954305 2.8954305,5 4,5 L20,5 C21.1045695,5 22,5.8954305 22,7 L22,17 C22,18.1045695 21.1045695,19 20,19 L4,19 C2.8954305,19 2,18.1045695 2,17 L2,7 Z M4,9 L4,17 L20,17 L20,9 L4,9 Z M4,7 L20,7 L20,7 L4,7 Z M9,13 L15,13 C15.5522847,13 16,13.4477153 16,14 C16,14.5522847 15.5522847,15 15,15 L9,15 C8.44771525,15 8,14.5522847 8,14 C8,13.4477153 8.44771525,13 9,13 Z" fill="#34C759"></path>
    </g>
</svg>
