<?xml version="1.0" encoding="UTF-8"?>
<svg width="24px" height="24px" viewBox="0 0 24 24" version="1.1" xmlns="http://www.w3.org/2000/svg">
    <g stroke="none" stroke-width="1" fill="none" fill-rule="evenodd">
        <path d="M12,4 C14.2091,4 16,5.79086 16,8 C16,10.2091 14.2091,12 12,12 C9.79086,12 8,10.2091 8,8 C8,5.79086 9.79086,4 12,4 Z M12,6 C10.8954,6 10,6.89543 10,8 C10,9.10457 10.8954,10 12,10 C13.1046,10 14,9.10457 14,8 C14,6.89543 13.1046,6 12,6 Z M12,13 C16.4183,13 20,16.5817 20,21 L20,22 L4,22 L4,21 C4,16.5817 7.58172,13 12,13 Z M12,15 C8.68629,15 6,17.6863 6,21 L18,21 C18,17.6863 15.3137,15 12,15 Z" fill="#4A90E2"></path>
    </g>
</svg>
