<?xml version="1.0" encoding="UTF-8"?>
<svg width="24px" height="24px" viewBox="0 0 24 24" version="1.1" xmlns="http://www.w3.org/2000/svg">
    <g stroke="none" stroke-width="1" fill="none" fill-rule="evenodd">
        <path d="M12,1 L21,5 L21,11 C21,16.5228475 17.5228475,20 12,20 C6.4771525,20 3,16.5228475 3,11 L3,5 L12,1 Z M12,3.09444073 L5,6.09444073 L5,11 C5,15.418278 7.581722,18 12,18 C16.418278,18 19,15.418278 19,11 L19,6.09444073 L12,3.09444073 Z M12,7 C13.1045695,7 14,7.8954305 14,9 C14,9.74002944 13.5978014,10.3866936 13,10.7324356 L13,13 C13,13.5522847 12.5522847,14 12,14 C11.4477153,14 11,13.5522847 11,13 L11,10.7324356 C10.4021986,10.3866936 10,9.74002944 10,9 C10,7.8954305 10.8954305,7 12,7 Z" fill="#5856D6"></path>
    </g>
</svg>
