<?xml version="1.0" encoding="UTF-8"?>
<svg width="24px" height="24px" viewBox="0 0 24 24" version="1.1" xmlns="http://www.w3.org/2000/svg">
    <g stroke="none" stroke-width="1" fill="none" fill-rule="evenodd">
        <path d="M12,1 L21,5 C21,5.55228475 21,8.38561808 21,13.5 C21,17.6394717 17.5,20.8289434 12,23 C6.5,20.8289434 3,17.6394717 3,13.5 C3,8.38561808 3,5.55228475 3,5 L12,1 Z M12,11 C10.8954305,11 10,11.8954305 10,13 C10,14.1045695 10.8954305,15 12,15 C13.1045695,15 14,14.1045695 14,13 C14,11.8954305 13.1045695,11 12,11 Z M12,5 C9.790861,5 8,6.790861 8,9 C8,9.74025974 8.20454545,10.4329004 8.56363636,11.0259741 C9.34415584,10.3896104 10.3766234,10 11.5,10 C12.6233766,10 13.6558442,10.3896104 14.4363636,11.0259741 C14.7954545,10.4329004 15,9.74025974 15,9 C15,6.790861 13.209139,5 11,5 L12,5 Z" fill="#FF9500"></path>
    </g>
</svg>
