<?xml version="1.0" encoding="UTF-8"?>
<svg width="24px" height="24px" viewBox="0 0 24 24" version="1.1" xmlns="http://www.w3.org/2000/svg">
    <g stroke="none" stroke-width="1" fill="none" fill-rule="evenodd">
        <path d="M12,8 C14.2091,8 16,9.79086 16,12 C16,14.2091 14.2091,16 12,16 C9.79086,16 8,14.2091 8,12 C8,9.79086 9.79086,8 12,8 Z M12,10 C10.8954,10 10,10.8954 10,12 C10,13.1046 10.8954,14 12,14 C13.1046,14 14,13.1046 14,12 C14,10.8954 13.1046,10 12,10 Z M12,2 C12.5523,2 13,2.44772 13,3 L13,4.08 C14.7252,4.51 16.2452,5.5 17.2877,6.91 L18.2,6.5 C18.7,6.31 19.26,6.54 19.45,7.05 L21.45,11.05 C21.64,11.55 21.41,12.12 20.9,12.31 L19.9877,12.72 C20.0325,13.14 20.0325,13.56 19.9877,13.98 L20.9,14.39 C21.4,14.58 21.64,15.15 21.45,15.65 L19.45,19.65 C19.26,20.16 18.7,20.39 18.2,20.2 L17.2877,19.79 C16.2452,21.2 14.7252,22.19 13,22.62 L13,23.7 C13,24.25 12.5523,24.7 12,24.7 L8,24.7 C7.44772,24.7 7,24.25 7,23.7 L7,22.62 C5.27477,22.19 3.75481,21.2 2.71229,19.79 L1.8,20.2 C1.3,20.39 0.74,20.16 0.55,19.65 L-1.45,15.65 C-1.64,15.15 -1.4,14.58 -0.9,14.39 L0.0122931,13.98 C-0.0325,13.56 -0.0325,13.14 0.0122931,12.72 L-0.9,12.31 C-1.4,12.12 -1.64,11.55 -1.45,11.05 L0.55,7.05 C0.74,6.54 1.3,6.31 1.8,6.5 L2.71229,6.91 C3.75481,5.5 5.27477,4.51 7,4.08 L7,3 C7,2.44772 7.44772,2 8,2 L12,2 Z M10,4 L10,5.29 C10,5.77 9.64,6.19 9.17,6.28 C7.84,6.51 6.64,7.15 5.76,8.11 C5.41,8.49 4.84,8.56 4.41,8.29 L3.27,7.71 L2.46,9.29 L3.6,9.87 C4.04,10.14 4.23,10.69 4.06,11.17 C3.88,11.68 3.88,12.32 4.06,12.83 C4.23,13.31 4.04,13.86 3.6,14.13 L2.46,14.71 L3.27,16.29 L4.41,15.71 C4.84,15.44 5.41,15.51 5.76,15.89 C6.64,16.85 7.84,17.49 9.17,17.72 C9.64,17.81 10,18.23 10,18.71 L10,20 L10,20 L10,4 Z" fill="#8E8E93"></path>
    </g>
</svg>
