<?xml version="1.0" encoding="UTF-8"?>
<svg width="24px" height="24px" viewBox="0 0 24 24" version="1.1" xmlns="http://www.w3.org/2000/svg">
    <g stroke="none" stroke-width="1" fill="none" fill-rule="evenodd">
        <path d="M18,2 C19.1045695,2 20,2.8954305 20,4 C20,5.1045695 19.1045695,6 18,6 C17.4474,6 16.9481661,5.78428308 16.5719,5.43269 L8.83,9.6 C8.94,9.92 9,10.26 9,10.62 C9,10.9 8.94,11.19 8.85,11.46 L16.64,15.83 C17.0110319,15.4174575 17.5148093,15.1551699 18.07,15.1551699 C19.1399,15.1551699 20,16.0152699 20,17.0851699 C20,18.1550699 19.1399,19.0151699 18.07,19.0151699 C17.0001,19.0151699 16.14,18.1550699 16.14,17.0851699 C16.14,16.8651699 16.18,16.6551699 16.24,16.4551699 L8.45,12.0851699 C8.08,12.4751699 7.57,12.7151699 7,12.7151699 C5.9,12.7151699 5,11.8151699 5,10.7151699 C5,9.6151699 5.9,8.7151699 7,8.7151699 C7.5,8.7151699 7.96,8.9151699 8.32,9.2351699 L16.06,5.0651699 C16.02,4.8651699 16,4.6551699 16,4.4551699 C16,3.3551699 16.9,2.4551699 18,2.4551699 L18,2 Z" fill="#FF9500"></path>
    </g>
</svg>
