<?xml version="1.0" encoding="UTF-8"?>
<svg width="24px" height="24px" viewBox="0 0 24 24" version="1.1" xmlns="http://www.w3.org/2000/svg">
    <g stroke="none" stroke-width="1" fill="none" fill-rule="evenodd">
        <path d="M7,22 C5.8954305,22 5,21.1045695 5,20 C5,18.8954305 5.8954305,18 7,18 C8.1045695,18 9,18.8954305 9,20 C9,21.1045695 8.1045695,22 7,22 Z M17,22 C15.8954305,22 15,21.1045695 15,20 C15,18.8954305 15.8954305,18 17,18 C18.1045695,18 19,18.8954305 19,20 C19,21.1045695 18.1045695,22 17,22 Z M3,4 L5,4 L5.5,6 L21,6 C21.5522847,6 22,6.44771525 22,7 C22,7.08400095 21.9891865,7.16729508 21.9677927,7.24792222 L19.4677927,15.2479222 C19.3538055,15.7013374 18.9380729,16 18.4675744,16 L7.5,16 L7.5,18 L18,18 C18.5522847,18 19,18.4477153 19,19 C19,19.5522847 18.5522847,20 18,20 L7,20 C5.8954305,20 5,19.1045695 5,18 L5,7.23607737 L4.5,5.23607737 L3,5 L3,4 Z M7.5,8 L7.5,14 L17.3779297,14 L19.3779297,8 L7.5,8 Z" fill="#FF9500"></path>
    </g>
</svg>
