<?xml version="1.0" encoding="UTF-8"?>
<svg width="24px" height="24px" viewBox="0 0 24 24" version="1.1" xmlns="http://www.w3.org/2000/svg">
    <g stroke="none" stroke-width="1" fill="none" fill-rule="evenodd">
        <path d="M22,9 C22.5522847,9 23,9.44771525 23,10 C23,10.0840009 22.9891865,10.1672951 22.9677927,10.2479222 L20.4677927,18.2479222 C20.3538055,18.7013374 19.9380729,19 19.4675744,19 L4.53242563,19 C4.06192708,19 3.64619446,18.7013374 3.53220733,18.2479222 L1.03220733,10.2479222 C0.920214944,9.70671211 1.25771966,9.16522522 1.79892977,9.05323283 C1.87955691,9.03183908 1.96285104,9.02102559 2.04685199,9.02102559 L7,9 L7,8 C7,5.23857625 9.23857625,3 12,3 C14.7614237,3 17,5.23857625 17,8 L17,9 L22,9 Z M15,9 L15,8 C15,6.34314575 13.6568542,5 12,5 C10.3431458,5 9,6.34314575 9,8 L9,9 L15,9 Z M12,12 C11.4477153,12 11,12.4477153 11,13 C11,13.5522847 11.4477153,14 12,14 C12.5522847,14 13,13.5522847 13,13 C13,12.4477153 12.5522847,12 12,12 Z" fill="#FF9500"></path>
    </g>
</svg>
